<svg width="137" height="49" viewBox="0 0 137 49" fill="none" xmlns="http://www.w3.org/2000/svg">
<g clip-path="url(#clip0_1_174)" filter="url(#filter0_d_1_174)">
<path d="M98.25 33.2301C95.077 33.2301 92.603 31.9231 91.016 29.5421V32.7621H84.434V0.663086H91.016V13.0641C92.603 10.6841 95.076 9.37609 98.251 9.37609C104.179 9.37609 108.894 14.6981 108.894 21.2791C108.894 27.8611 104.179 33.2291 98.251 33.2291L98.25 33.2301ZM96.757 15.6321C93.536 15.6321 91.016 18.1051 91.016 21.2791C91.016 24.5011 93.536 26.9271 96.756 26.9271C99.932 26.9271 102.499 24.4541 102.499 21.2791C102.499 18.1521 99.932 15.6321 96.757 15.6321Z" fill="#FCFCFA"/>
<path d="M132.078 9.84277L119.334 40.3718H112.286L116.533 30.8958L107.711 9.84277H114.806L119.894 23.2398L124.984 9.84277H132.078Z" fill="#FCFCFA"/>
<path d="M81.395 32.7631H74.813V0.663086H81.395V32.7631Z" fill="#FCFCFA"/>
<path d="M72.194 32.763H65.986V29.916C64.632 32.156 62.485 33.23 59.451 33.23C55.39 33.23 52.355 30.196 52.355 26.368C52.355 21.56 56.603 19.038 63.045 19.038H65.985V18.525C65.985 16.471 64.212 14.743 61.598 14.743C59.124 14.743 56.697 16.098 55.436 17.685L51.842 13.857C53.849 11.242 57.77 9.375 61.598 9.375C68.087 9.375 72.194 13.157 72.194 18.665V32.763ZM65.986 23.147H62.718C59.824 23.147 58.097 24.034 58.097 25.761C58.097 27.161 59.217 28.095 60.991 28.095C63.885 28.095 65.986 26.135 65.986 23.847V23.147Z" fill="#FCFCFA"/>
<path d="M50.017 19.7861V32.7631H43.435V20.6261C43.435 17.6391 41.615 15.6781 38.907 15.6781C36.153 15.6781 34.379 17.6391 34.379 20.6261V32.7631H27.797V0.663086H34.379V12.8311C35.826 10.6371 37.973 9.37609 40.589 9.37609C46.469 9.37609 50.017 13.2981 50.017 19.7861Z" fill="#FCFCFA"/>
<path d="M25.21 32.4831C24.37 32.9031 23.062 33.1361 21.848 33.1361C16.48 33.1361 12.699 29.7281 12.699 23.8001V0.663086H19.281V9.84309H24.929V16.0981H19.281V23.4731C19.281 25.6211 20.914 26.9741 22.828 26.9741C23.482 26.9741 24.369 26.8351 24.882 26.6481L25.21 32.4831Z" fill="#FCFCFA"/>
<path d="M11.435 12.97C11.4351 13.4421 11.3421 13.9096 11.1615 14.3458C10.9809 14.782 10.7162 15.1783 10.3824 15.5122C10.0486 15.846 9.65234 16.1109 9.2162 16.2916C8.78006 16.4724 8.3126 16.5654 7.8405 16.5655C7.36839 16.5655 6.9009 16.4726 6.46471 16.292C6.02852 16.1114 5.63217 15.8467 5.2983 15.5129C4.96443 15.1791 4.69957 14.7828 4.51884 14.3467C4.33811 13.9105 4.24506 13.4431 4.245 12.971C4.245 12.0175 4.62375 11.1031 5.29795 10.4289C5.97214 9.75473 6.88654 9.37598 7.83999 9.37598C8.79345 9.37598 9.70785 9.75473 10.382 10.4289C11.0562 11.1031 11.435 12.0175 11.435 12.971V12.97Z" fill="#CCCC33"/>
</g>
<defs>
<filter id="filter0_d_1_174" x="0" y="0" width="137" height="49" filterUnits="userSpaceOnUse" color-interpolation-filters="sRGB">
<feFlood flood-opacity="0" result="BackgroundImageFix"/>
<feColorMatrix in="SourceAlpha" type="matrix" values="0 0 0 0 0 0 0 0 0 0 0 0 0 0 0 0 0 0 127 0" result="hardAlpha"/>
<feOffset dy="4"/>
<feGaussianBlur stdDeviation="2"/>
<feComposite in2="hardAlpha" operator="out"/>
<feColorMatrix type="matrix" values="0 0 0 0 0 0 0 0 0 0 0 0 0 0 0 0 0 0 0.25 0"/>
<feBlend mode="normal" in2="BackgroundImageFix" result="effect1_dropShadow_1_174"/>
<feBlend mode="normal" in="SourceGraphic" in2="effect1_dropShadow_1_174" result="shape"/>
</filter>
<clipPath id="clip0_1_174">
<rect width="129" height="41" fill="white" transform="translate(4)"/>
</clipPath>
</defs>
</svg>
